# xmcd
#
# Track frame offsets:
#	150
#	13269
#	28124
#	43007
#	63946
#	79292
#	91779
#	104121
#	119046
#	134430
#	150206
#
# Disc length: 2186 seconds
#
# Revision: 0
# Processed by: cddbd v1.5.2PL0 Copyright (c) Steve Scherf et al.
# Submitted via: EZCDAudioConverter 2.0.7.1
#
DISCID=9108880b
DTITLE=Love And Theft - Whiskey On My Breath
DYEAR=2015
DGENRE=Country
TTITLE0=Can't Wait For The Weekend
TTITLE1=Anytime, Anywhere
TTITLE2=Hang Out Hangover
TTITLE3=Whiskey On My Breath
TTITLE4=Easy
TTITLE5=Tan Lines
TTITLE6=Everybody Drives Drunk
TTITLE7=Can't Stop Smiling
TTITLE8=Wrong Baby Wrong
TTITLE9=Like I Feel It
TTITLE10=Let's Get Drunk And Make Friends
EXTD=
EXTT0=
EXTT1=
EXTT2=
EXTT3=
EXTT4=
EXTT5=
EXTT6=
EXTT7=
EXTT8=
EXTT9=
EXTT10=
PLAYORDER=
